# xmcd
#
# Track frame offsets:
#   150
#   13365
#   31829
#   46662
#   67238
#   83464
#   100104
#   120380
#   144106
#
# Disc length: 2095 seconds
#
# Revision: 1
# Processed by: cddbd v1.5.1PL2 Copyright (c) Steve Scherf et al.
# Submitted via: freedbtool 1.11
#
DISCID=66082d09
DTITLE=Stevie Ray Vaughan - Doubled cd2
DYEAR=1900
DGENRE=Blues
TTITLE0=Ti-ni-nee-nu
TTITLE1=Scratch my back
TTITLE2=I'll change
TTITLE3=Shake a hand
TTITLE4=Oh baby
TTITLE5=Sugar coated love
TTITLE6=Love in vain
TTITLE7=You can have my wife
TTITLE8=My baby's gone
EXTD=
EXTT0=
EXTT1=
EXTT2=
EXTT3=
EXTT4=
EXTT5=
EXTT6=
EXTT7=
EXTT8=
PLAYORDER=
